<svg width="200" height="200" viewBox="0 0 200 200" fill="none" xmlns="http://www.w3.org/2000/svg">
<circle cx="100" cy="100" r="100" fill="#D9D9D9"/>
<g clip-path="url(#clip0_103_44)">
<path d="M96.5774 112.617C69.9416 115.025 49.6488 137.532 50.0024 164.274V165.63C50.0024 170.807 54.1998 175.005 59.3774 175.005C64.5551 175.005 68.7524 170.807 68.7524 165.63V163.899C68.4706 147.479 80.5878 133.477 96.8774 131.399C114.073 129.694 129.395 142.251 131.1 159.446C131.2 160.463 131.251 161.483 131.252 162.505V165.63C131.252 170.807 135.45 175.005 140.627 175.005C145.805 175.005 150.002 170.807 150.002 165.63V162.505C149.972 134.859 127.536 112.473 99.8909 112.504C98.7855 112.505 97.6804 112.543 96.5774 112.617Z" fill="#374957"/>
<path d="M100.003 100C120.713 100 137.503 83.2105 137.503 62.5C137.503 41.7895 120.713 25 100.003 25C79.2921 25 62.5027 41.7895 62.5027 62.5C62.5232 83.2021 79.3006 99.9792 100.003 100ZM100.003 43.75C110.358 43.75 118.753 52.1447 118.753 62.5C118.753 72.8553 110.358 81.25 100.003 81.25C89.6474 81.25 81.2527 72.8553 81.2527 62.5C81.2527 52.1447 89.6474 43.75 100.003 43.75Z" fill="#374957"/>
</g>
<defs>
<clipPath id="clip0_103_44">
<rect width="150" height="150" fill="white" transform="translate(25 25)"/>
</clipPath>
</defs>
</svg>
